<svg width="19" height="15" viewBox="0 0 19 15" fill="none" xmlns="http://www.w3.org/2000/svg">
<g id="union">
<path d="M0.698486 5.41418C0.698486 2.48023 3.53038 0.101562 7.02374 0.101562C10.1794 0.101562 12.7096 2.04253 13.1859 4.58062C13.1582 4.57926 13.1355 4.57802 13.1153 4.57692C13.0528 4.57351 13.0147 4.57143 12.9275 4.57143C9.74138 4.57143 7.15876 6.74091 7.15876 9.41671C7.15876 9.86804 7.23356 10.3043 7.37111 10.7189C7.25606 10.7239 7.14038 10.7271 7.02374 10.7271C6.3019 10.7271 5.6051 10.6232 4.95901 10.4358C4.90022 10.4178 4.83794 10.4081 4.77312 10.4081C4.65157 10.4081 4.54144 10.4454 4.43748 10.5057L3.05243 11.3116C3.01392 11.3341 2.97668 11.351 2.93072 11.351C2.81425 11.351 2.71996 11.2561 2.71996 11.1387C2.71996 11.099 2.73169 11.0594 2.74317 11.0208C2.7469 11.0082 2.7506 10.9957 2.75387 10.9834C2.76066 10.9577 2.88671 10.4837 2.98966 10.0966L3.0388 9.91178C3.05116 9.86646 3.06115 9.82351 3.06115 9.77644C3.06115 9.63334 2.9911 9.50704 2.88398 9.43002C1.55059 8.45621 0.698486 7.01523 0.698486 5.41418ZM4.16744 3.71425C4.16744 4.1304 4.50229 4.46794 4.91559 4.46794C5.32825 4.46794 5.6631 4.1304 5.6631 3.71425C5.6631 3.29795 5.32825 2.96056 4.91559 2.96056C4.50229 2.96056 4.16744 3.29795 4.16744 3.71425ZM8.38438 3.71425C8.38438 4.1304 8.71924 4.46779 9.13221 4.46779C9.54519 4.46779 9.88004 4.1304 9.88004 3.71425C9.88004 3.29795 9.54519 2.96056 9.13221 2.96056C8.71924 2.96056 8.38438 3.29795 8.38438 3.71425Z" fill="white" fill-opacity="0.9"/>
<path d="M18.1985 9.41663C18.1985 10.7506 17.4885 11.9514 16.3773 12.7631C16.2879 12.8273 16.2296 12.9328 16.2296 13.0517C16.2296 13.0908 16.238 13.1269 16.2482 13.1645C16.3371 13.4981 16.4791 14.0324 16.4857 14.0575C16.4885 14.0682 16.4917 14.079 16.495 14.09C16.5044 14.1218 16.5141 14.1543 16.5141 14.1871C16.5141 14.2847 16.4355 14.3641 16.3383 14.3641C16.3001 14.3641 16.2689 14.3495 16.2366 14.3312L15.0829 13.6596C14.9961 13.609 14.9042 13.5779 14.8031 13.5779C14.749 13.5779 14.697 13.5863 14.6481 13.6014C14.1096 13.7573 13.5288 13.844 12.9274 13.844C10.0164 13.844 7.65629 11.8619 7.65629 9.41663C7.65629 6.97141 10.0164 4.98955 12.9274 4.98955C15.8387 4.98955 18.1985 6.97141 18.1985 9.41663ZM10.5123 8.00005C10.5123 8.36628 10.807 8.6631 11.1704 8.6631C11.5339 8.6631 11.8285 8.36628 11.8285 8.00005C11.8285 7.63366 11.5339 7.33668 11.1704 7.33668C10.807 7.33668 10.5123 7.63366 10.5123 8.00005ZM14.0267 8.00005C14.0267 8.36628 14.321 8.6631 14.6845 8.6631C15.0481 8.6631 15.3427 8.36628 15.3427 8.00005C15.3427 7.63366 15.0481 7.33668 14.6845 7.33668C14.321 7.33668 14.0267 7.63366 14.0267 8.00005Z" fill="white" fill-opacity="0.9"/>
</g>
</svg>
